<?xml version="1.0" encoding="UTF-8"?>
<!DOCTYPE svg PUBLIC "-//W3C//DTD SVG 1.1//EN" "http://www.w3.org/Graphics/SVG/1.1/DTD/svg11.dtd">
<!-- Creator: CorelDRAW 2021 (64-Bit) -->
<svg xmlns="http://www.w3.org/2000/svg" xml:space="preserve" width="8.30245in" height="1.52328in" version="1.1" style="shape-rendering:geometricPrecision; text-rendering:geometricPrecision; image-rendering:optimizeQuality; fillRule:evenodd; clipRule:evenodd"
viewBox="0 0 8302.02 1523.2"
 xmlns:xlink="http://www.w3.org/1999/xlink"
 xmlns:xodm="http://www.corel.com/coreldraw/odm/2003">
 <defs>
  <style type="text/css">
   <![CDATA[
    .fil1 {fill:#ED3237}
    .fil0 {fill:#373435;fillRule:nonzero}
    .fil2 {fill:#ED3237;fillRule:nonzero}
   ]]>
  </style>
 </defs>
 <g id="Layer_x0020_1">
  <metadata id="CorelCorpID_0Corel-Layer"/>
  <path class="fil0" d="M1314.42 850.03c-18.64,0 -37.71,-0.11 -56.9,-0.11 -224.7,0 -127.8,0.26 -352.38,0.26l-321.02 -255.1 673.41 0c19.12,0 37.88,-0.09 56.9,-0.09l0 255.04z"/>
  <path class="fil0" d="M127.42 0l545.99 0c233.83,0 446.31,95.57 600.27,249.53 153.96,153.97 249.53,366.45 249.53,600.28l0 0.23 -254.84 0 0 -0.23c0,-163.48 -66.97,-312.2 -174.87,-420.09 -107.9,-107.9 -256.61,-174.87 -420.09,-174.87l-418.56 0 0 418.56c0,163.48 66.97,312.2 174.87,420.09 107.9,107.9 256.61,174.87 420.09,174.87 55.49,0 91.35,-0.02 117.3,-0.04l147.16 114.1 231.79 0 38.98 30.97 25.73 20.45 112.44 89.35 -673.41 0c-233.83,0 -446.31,-95.57 -600.27,-249.53 -153.96,-153.97 -249.53,-366.45 -249.53,-600.28l0 -673.4 127.42 0z"/>
  <path class="fil1" d="M1003.79 1266.17l108.51 0c52.93,0 151.74,43.3 219.59,96.23l0 0 -204.75 0 -123.36 -96.23z"/>
  <path class="fil0" d="M1929.3 742.99l0 -571.77 449.77 0 0 65.77 -378.7 0 0 167.61 229.13 0 0 65.77 -229.13 0 0 206.86 402.04 0 0 65.77 -473.11 0zm882.51 -571.77l0 370.22c0,59.23 11.14,99.01 33.42,119.34 22.27,20.16 65.95,30.23 131.36,30.23 65.24,0 108.91,-10.08 131.01,-30.23 22.1,-20.33 33.06,-60.11 33.06,-119.34l0 -370.22 71.07 0 0 389.31c0,70.37 -18.21,120.93 -54.81,151.52 -36.6,30.59 -96.88,45.79 -180.69,45.79 -83.8,0 -144.09,-15.2 -180.69,-45.79 -36.6,-30.59 -54.81,-81.15 -54.81,-151.52l0 -389.31 71.08 0zm873.31 254.59l252.47 0c35.89,0 63.11,-7.96 81.5,-23.86 18.56,-15.74 27.76,-39.07 27.76,-69.84 0,-29.88 -9.2,-53.39 -27.76,-70.01 -18.39,-16.8 -44.38,-25.11 -77.97,-25.11l-256 0 0 188.82zm-71.08 317.18l0 -571.77 328.14 0c55.87,0 99.53,14.14 131.36,42.26 31.65,28.11 47.56,67 47.56,116.68 0,41.37 -12.37,76.73 -37.12,106.26 -24.93,29.53 -57.64,47.91 -98.3,55.16l142.85 251.41 -78.5 0 -143.03 -250.35 -221.88 0 0 250.35 -71.08 0zm1134.27 -51.98c64.18,0 117.39,-21.92 159.65,-65.77 42.08,-43.85 63.11,-99.54 63.11,-166.9 0,-67.54 -21.04,-123.41 -62.94,-167.25 -41.9,-43.85 -95.29,-65.77 -159.83,-65.77 -64.18,0 -117.4,22.1 -159.65,66.12 -42.08,44.03 -63.11,99.72 -63.11,166.9 0,67.36 21.04,123.05 63.11,166.9 42.25,43.84 95.47,65.77 159.65,65.77zm-0.18 66.83c-85.75,0 -156.46,-28.29 -212.16,-84.68 -55.69,-56.4 -83.63,-128 -83.63,-214.81 0,-86.99 27.94,-158.77 83.98,-215.17 55.87,-56.4 126.41,-84.68 211.8,-84.68 85.57,0 156.46,28.29 212.86,85.04 56.23,56.58 84.33,128.18 84.33,214.81 0,86.81 -28.11,158.41 -84.16,214.81 -56.04,56.4 -127.12,84.68 -213.04,84.68zm769.18 -14.85l0 -506 -240.8 0 0 -65.77 552.67 0 0 65.77 -240.8 0 0 506 -71.08 0zm589.91 0l0 -571.77 449.77 0 0 65.77 -378.7 0 0 167.61 229.13 0 0 65.77 -229.13 0 0 206.86 402.04 0 0 65.77 -473.11 0zm1282.42 -182.46l57.28 42.43c-26.17,49.68 -62.23,88.05 -107.85,114.74 -45.44,26.7 -97.24,40.13 -155.41,40.13 -85.57,0 -156.29,-28.29 -212.16,-84.68 -55.69,-56.4 -83.63,-128 -83.63,-214.81 0,-86.99 27.94,-158.77 83.8,-215.17 56.04,-56.4 126.59,-84.68 211.8,-84.68 52.86,0 101.13,11.49 144.62,34.65 43.49,23.16 78.85,56.22 106.08,99.01l-59.58 42.43c-17.86,-34.12 -43.85,-60.99 -77.61,-80.26 -33.77,-19.27 -71.6,-29 -113.33,-29 -64.18,0 -117.4,22.1 -159.47,66.12 -42.08,44.03 -63.11,99.72 -63.11,166.9 0,67.36 21.04,123.05 63.11,166.9 42.08,43.84 95.29,65.77 159.47,65.77 44.91,0 84.68,-11.14 119.51,-33.24 34.83,-22.1 63.65,-54.45 86.46,-97.24zm431.85 182.46l0 -571.77 72.13 0 0 225.95 337.33 0 0 -225.95 71.07 0 0 571.77 -71.07 0 0 -280.05 -337.33 0 0 280.05 -72.13 0z"/>
  <path class="fil2" d="M1929.3 1355.21l149.07 -183.9 -147.04 -181.87 55.65 0 119.89 146.47 119.66 -146.47 54.97 0 -147.48 179.95 151.56 185.83 -58.36 0 -121.58 -150.77 -122.94 150.77 -53.39 0zm766.22 -116.72l36.65 27.14c-16.74,31.78 -39.81,56.32 -69,73.41 -29.07,17.08 -62.21,25.67 -99.42,25.67 -54.74,0 -99.98,-18.09 -135.73,-54.17 -35.62,-36.08 -53.5,-81.89 -53.5,-137.42 0,-55.65 17.87,-101.57 53.61,-137.65 35.86,-36.08 80.98,-54.17 135.5,-54.17 33.82,0 64.7,7.35 92.52,22.17 27.83,14.81 50.45,35.97 67.86,63.34l-38.12 27.14c-11.42,-21.83 -28.05,-39.02 -49.65,-51.35 -21.61,-12.33 -45.81,-18.55 -72.5,-18.55 -41.06,0 -75.1,14.14 -102.02,42.3 -26.92,28.16 -40.38,63.79 -40.38,106.77 0,43.09 13.46,78.72 40.38,106.77 26.92,28.05 60.96,42.07 102.02,42.07 28.73,0 54.18,-7.12 76.46,-21.26 22.28,-14.14 40.72,-34.83 55.31,-62.21zm174.58 116.72l0 -365.78 46.14 0 0 144.55 215.8 0 0 -144.55 45.47 0 0 365.78 -45.47 0 0 -179.16 -215.8 0 0 179.16 -46.14 0zm537.64 -141.15l161.06 0 -80.87 -161.96 -80.19 161.96zm-117.97 141.15l179.27 -365.78 37.77 0 181.31 365.78 -49.43 0 -49.65 -98.4 -202.12 0 -48.41 98.4 -48.75 0zm510.38 0l0 -365.78 23.86 0 237.4 273.37 0 -273.37 45.47 0 0 365.78 -23.18 0 -238.08 -273.37 0 273.37 -45.47 0zm752.65 -99.08l0 -53.61 -99.76 0 0 -42.07 145.22 0 0 109.94c-17.64,30.42 -40.72,53.72 -69.11,70.01 -28.39,16.18 -60.62,24.32 -96.59,24.32 -54.74,0 -99.98,-18.09 -135.73,-54.17 -35.62,-36.08 -53.5,-81.89 -53.5,-137.42 0,-55.65 17.87,-101.57 53.61,-137.65 35.86,-36.08 80.98,-54.17 135.5,-54.17 33.82,0 64.7,7.35 92.52,22.17 27.83,14.81 50.45,35.97 67.86,63.34l-38 27.14c-11.54,-21.83 -28.05,-39.02 -49.77,-51.35 -21.61,-12.33 -45.81,-18.55 -72.5,-18.55 -41.06,0 -75.1,14.14 -102.02,42.3 -26.92,28.16 -40.38,63.79 -40.38,106.77 0,43.09 13.46,78.72 40.38,106.77 26.92,28.05 60.96,42.07 102.02,42.07 25.68,0 48.41,-5.54 68.43,-16.51 19.9,-11.09 37.21,-27.48 51.8,-49.31zm195.73 99.08l0 -365.78 287.73 0 0 42.08 -242.27 0 0 107.22 146.58 0 0 42.08 -146.58 0 0 132.33 257.2 0 0 42.07 -302.66 0z"/>
 </g>
</svg>
